<?xml version="1.0" encoding="UTF-8" standalone="no"?>
<svg
   xmlns:dc="http://purl.org/dc/elements/1.1/"
   xmlns:cc="http://creativecommons.org/ns#"
   xmlns:rdf="http://www.w3.org/1999/02/22-rdf-syntax-ns#"
   xmlns:svg="http://www.w3.org/2000/svg"
   xmlns="http://www.w3.org/2000/svg"
   xmlns:sodipodi="http://sodipodi.sourceforge.net/DTD/sodipodi-0.dtd"
   xmlns:inkscape="http://www.inkscape.org/namespaces/inkscape"
   width="190"
   height="190"
   viewBox="0 0 50.270832 50.270835"
   version="1.1"
   id="svg8"
   inkscape:version="1.0.1 (c497b03c, 2020-09-10)"
   sodipodi:docname="logov2.svg">
  <defs
     id="defs2" />
  <sodipodi:namedview
     id="base"
     pagecolor="#ffffff"
     bordercolor="#666666"
     borderopacity="1.0"
     inkscape:pageopacity="0.0"
     inkscape:pageshadow="2"
     inkscape:zoom="1.8808248"
     inkscape:cx="125.70918"
     inkscape:cy="139.80558"
     inkscape:document-units="mm"
     inkscape:current-layer="layer1"
     inkscape:document-rotation="0"
     showgrid="false"
     units="px"
     inkscape:snap-bbox="true"
     inkscape:bbox-paths="true"
     inkscape:bbox-nodes="true"
     inkscape:object-paths="true"
     inkscape:snap-smooth-nodes="false"
     inkscape:snap-bbox-edge-midpoints="true"
     inkscape:snap-bbox-midpoints="true"
     showguides="true"
     inkscape:guide-bbox="true"
     fit-margin-top="0"
     fit-margin-left="0"
     fit-margin-right="0"
     fit-margin-bottom="0"
     inkscape:window-width="1680"
     inkscape:window-height="1050"
     inkscape:window-x="0"
     inkscape:window-y="0"
     inkscape:window-maximized="0">
    <sodipodi:guide
       position="10.583332,25.135373"
       orientation="0,1"
       id="guide868"
       inkscape:label=""
       inkscape:locked="false"
       inkscape:color="rgb(0,0,255)" />
    <sodipodi:guide
       position="25.135085,50.270833"
       orientation="-1,0"
       id="guide870"
       inkscape:label=""
       inkscape:locked="false"
       inkscape:color="rgb(0,0,255)" />
  </sodipodi:namedview>
  <metadata
     id="metadata5">
    <rdf:RDF>
      <cc:Work
         rdf:about="">
        <dc:format>image/svg+xml</dc:format>
        <dc:type
           rdf:resource="http://purl.org/dc/dcmitype/StillImage" />
        <dc:title></dc:title>
      </cc:Work>
    </rdf:RDF>
  </metadata>
  <g
     inkscape:label="Layer 1"
     inkscape:groupmode="layer"
     id="layer1"
     transform="translate(-26.80474,-21.357652)">
    <path
       id="path851"
       style="fill:#000000;stroke-width:5.00001;stroke-linecap:round;stroke-linejoin:round;stroke-opacity:0.54646"
       d="M 39.923828 0 A 39.999999 39.999999 0 0 0 0 40 A 39.999999 39.999999 0 0 0 40 80 A 39.999999 39.999999 0 0 0 80 40 A 39.999999 39.999999 0 0 0 40 0 A 39.999999 39.999999 0 0 0 39.923828 0 z M 149.92383 0 A 39.999999 39.999999 0 0 0 120.68555 12.785156 C 120.48693 12.970227 120.28471 13.144975 120.08984 13.339844 C 94.997889 38.431799 112.97165 72.759788 92.998047 93 C 73.473232 112.78541 39.979833 95.808387 13.332031 120.1875 A 39.999999 39.999999 0 0 0 12.837891 120.63672 A 39.999999 39.999999 0 0 0 12.833984 120.64062 C 12.793694 120.67839 12.753149 120.71595 12.712891 120.75391 A 39.999999 39.999999 0 0 0 11.568359 121.86523 C 11.546967 121.88656 11.525289 121.90635 11.503906 121.92773 C 11.484721 121.94692 11.468319 121.96711 11.449219 121.98633 A 39.999999 39.999999 0 0 0 0 150 A 39.999999 39.999999 0 0 0 40 190 A 39.999999 39.999999 0 0 0 68.0625 178.50391 A 39.999999 39.999999 0 0 0 68.072266 178.49414 C 68.076215 178.49019 68.080037 178.48637 68.083984 178.48242 A 39.999999 39.999999 0 0 0 69.882812 176.58984 C 94.157834 149.95489 77.231789 116.50589 96.998047 97 C 117.23829 77.026346 151.56654 94.99987 176.6582 69.908203 C 176.84531 69.7211 177.01334 69.526494 177.19141 69.335938 A 39.999999 39.999999 0 0 0 190 40 A 39.999999 39.999999 0 0 0 150 0 A 39.999999 39.999999 0 0 0 149.92383 0 z M 149.92383 110 A 39.999999 39.999999 0 0 0 110 150 A 39.999999 39.999999 0 0 0 150 190 A 39.999999 39.999999 0 0 0 190 150 A 39.999999 39.999999 0 0 0 150 110 A 39.999999 39.999999 0 0 0 149.92383 110 z "
       transform="matrix(0.26458333,0,0,0.26458333,26.80474,21.357652)" />
  </g>
</svg>
